<svg xmlns="http://www.w3.org/2000/svg" viewBox="0 0 512 512">
  <defs>
    <linearGradient id="bg" x1="0%" y1="0%" x2="100%" y2="100%">
      <stop offset="0%" style="stop-color:#0f172a"/>
      <stop offset="100%" style="stop-color:#1e293b"/>
    </linearGradient>
    <linearGradient id="teal" x1="0%" y1="0%" x2="0%" y2="100%">
      <stop offset="0%" style="stop-color:#2dd4bf"/>
      <stop offset="100%" style="stop-color:#14b8a6"/>
    </linearGradient>
    <linearGradient id="orange" x1="0%" y1="0%" x2="0%" y2="100%">
      <stop offset="0%" style="stop-color:#fb923c"/>
      <stop offset="100%" style="stop-color:#f97316"/>
    </linearGradient>
    <linearGradient id="amber" x1="0%" y1="0%" x2="0%" y2="100%">
      <stop offset="0%" style="stop-color:#fbbf24"/>
      <stop offset="100%" style="stop-color:#f59e0b"/>
    </linearGradient>
  </defs>
  
  <!-- Background -->
  <rect width="512" height="512" rx="96" fill="url(#bg)"/>
  
  <!-- Jenga Tower - Layer 1 (bottom) -->
  <rect x="140" y="360" width="70" height="25" rx="4" fill="url(#teal)"/>
  <rect x="220" y="360" width="70" height="25" rx="4" fill="url(#teal)"/>
  <rect x="300" y="360" width="70" height="25" rx="4" fill="url(#teal)"/>
  
  <!-- Layer 2 -->
  <rect x="165" y="325" width="25" height="70" rx="4" fill="url(#orange)" transform="rotate(90 200 360)"/>
  <rect x="230" y="325" width="25" height="70" rx="4" fill="url(#orange)" transform="rotate(90 265 360)"/>
  <rect x="295" y="325" width="25" height="70" rx="4" fill="url(#orange)" transform="rotate(90 330 360)"/>
  
  <!-- Layer 3 -->
  <rect x="140" y="290" width="70" height="25" rx="4" fill="url(#teal)"/>
  <rect x="220" y="290" width="70" height="25" rx="4" fill="url(#teal)"/>
  <rect x="300" y="290" width="70" height="25" rx="4" fill="url(#teal)"/>
  
  <!-- Layer 4 -->
  <rect x="165" y="255" width="25" height="70" rx="4" fill="url(#amber)" transform="rotate(90 200 290)"/>
  <rect x="230" y="255" width="25" height="70" rx="4" fill="url(#amber)" transform="rotate(90 265 290)"/>
  <rect x="295" y="255" width="25" height="70" rx="4" fill="url(#amber)" transform="rotate(90 330 290)"/>
  
  <!-- Layer 5 -->
  <rect x="140" y="220" width="70" height="25" rx="4" fill="url(#teal)"/>
  <rect x="220" y="220" width="70" height="25" rx="4" fill="url(#teal)"/>
  <rect x="300" y="220" width="70" height="25" rx="4" fill="url(#teal)"/>
  
  <!-- Layer 6 (top) -->
  <rect x="165" y="185" width="25" height="70" rx="4" fill="url(#orange)" transform="rotate(90 200 220)"/>
  <rect x="230" y="185" width="25" height="70" rx="4" fill="url(#orange)" transform="rotate(90 265 220)"/>
  <rect x="295" y="185" width="25" height="70" rx="4" fill="url(#orange)" transform="rotate(90 330 220)"/>
  
  <!-- Bitcoin Privacy Shield Icon -->
  <path d="M256 100 L290 120 L290 155 C290 180 275 200 256 210 C237 200 222 180 222 155 L222 120 Z" 
        fill="url(#amber)" opacity="0.9"/>
  <text x="256" y="170" font-family="Arial, sans-serif" font-size="36" font-weight="bold" 
        fill="#0f172a" text-anchor="middle">₿</text>
</svg>
